<svg width="45" height="24" viewBox="0 0 45 24" fill="none" xmlns="http://www.w3.org/2000/svg">
<path d="M44.7613 21.6746C44.7069 21.5649 44.6561 21.4738 44.6089 21.4009C43.8281 20.0864 42.3361 18.473 40.1338 16.5602L40.0873 16.5164L40.064 16.495L40.0404 16.4729H40.0168C39.0173 15.5823 38.3843 14.9834 38.1192 14.6768C37.6343 14.0927 37.5256 13.5015 37.7907 12.9024C37.9779 12.4498 38.6814 11.494 39.8994 10.0337C40.54 9.25974 41.0474 8.63946 41.4221 8.17214C44.1245 4.81373 45.2962 2.66767 44.9367 1.7331L44.7971 1.5147C44.7033 1.38322 44.4612 1.26294 44.0712 1.15324C43.6802 1.04378 43.1806 1.02567 42.5712 1.09863L35.8237 1.1422C35.7144 1.10599 35.5583 1.10936 35.355 1.15324C35.1518 1.19712 35.0503 1.21914 35.0503 1.21914L34.9328 1.27399L34.8396 1.33988C34.7615 1.38345 34.6756 1.46009 34.5818 1.56963C34.4885 1.67879 34.4104 1.8069 34.348 1.95288C33.6134 3.71961 32.7782 5.36222 31.8408 6.88063C31.2628 7.78605 30.732 8.57073 30.2473 9.23512C29.7632 9.89928 29.3571 10.3886 29.0293 10.7023C28.701 11.0163 28.4048 11.2678 28.1387 11.4578C27.8731 11.6479 27.6703 11.7282 27.5299 11.6988C27.3892 11.6695 27.2567 11.6403 27.1312 11.6112C26.9126 11.4797 26.7369 11.3009 26.6043 11.0746C26.4712 10.8483 26.3816 10.5634 26.3348 10.2203C26.2881 9.87696 26.2606 9.58162 26.2527 9.33331C26.2454 9.0853 26.2488 8.7345 26.2646 8.28191C26.2808 7.82909 26.2881 7.5227 26.2881 7.36207C26.2881 6.80714 26.2997 6.20489 26.3229 5.55514C26.3466 4.9054 26.3657 4.3906 26.3817 4.01134C26.3976 3.63169 26.405 3.23004 26.405 2.80659C26.405 2.38315 26.3774 2.05107 26.3229 1.81004C26.2691 1.56932 26.1865 1.33566 26.0776 1.10913C25.968 0.882837 25.8077 0.707783 25.5973 0.583511C25.3864 0.459393 25.1243 0.360896 24.8124 0.287714C23.9845 0.112583 22.9302 0.0178448 21.6491 0.00311629C18.744 -0.0260339 16.8773 0.149327 16.0495 0.528969C15.7215 0.689372 15.4246 0.908534 15.1593 1.18577C14.878 1.50711 14.8388 1.68247 15.0418 1.71132C15.9791 1.84257 16.6427 2.15654 17.0332 2.65294L17.174 2.91598C17.2835 3.10577 17.3928 3.44176 17.5021 3.9235C17.6114 4.40525 17.6819 4.93816 17.7129 5.52193C17.7908 6.58798 17.7908 7.50053 17.7129 8.25966C17.6347 9.0191 17.5608 9.61031 17.4903 10.0338C17.4198 10.4572 17.3145 10.8003 17.174 11.0631C17.0332 11.3259 16.9396 11.4865 16.8927 11.5448C16.8458 11.6031 16.8067 11.6399 16.7757 11.6543C16.5727 11.727 16.3616 11.764 16.143 11.764C15.9242 11.764 15.6588 11.6617 15.3464 11.4572C15.0342 11.2527 14.7101 10.9718 14.3742 10.614C14.0384 10.2561 13.6596 9.75606 13.2377 9.11369C12.8161 8.47131 12.3787 7.7121 11.9257 6.83606L11.5509 6.20074C11.3167 5.79203 10.9966 5.1969 10.5905 4.41591C10.1841 3.63461 9.82491 2.87885 9.51266 2.1488C9.38784 1.84218 9.20033 1.60875 8.95045 1.44812L8.83318 1.38222C8.75522 1.32392 8.63007 1.26202 8.4584 1.19605C8.28648 1.13015 8.10709 1.0829 7.91949 1.05382L1.49978 1.0974C0.843772 1.0974 0.398662 1.23632 0.16429 1.51378L0.0704921 1.64504C0.0236341 1.71814 0 1.8349 0 1.99561C0 2.15624 0.046858 2.35338 0.140656 2.58682C1.07782 4.64574 2.09696 6.6314 3.19808 8.54411C4.2992 10.4568 5.25605 11.9976 6.06807 13.1649C6.88024 14.3332 7.7081 15.4357 8.55162 16.4721C9.39515 17.5089 9.9535 18.1732 10.2267 18.4651C10.5002 18.7576 10.715 18.9762 10.8712 19.1222L11.4571 19.6477C11.8319 19.9982 12.3824 20.418 13.1087 20.907C13.8352 21.3963 14.6395 21.8781 15.5221 22.353C16.4047 22.8271 17.4316 23.2141 18.6032 23.5133C19.7746 23.8129 20.9148 23.9331 22.0239 23.8751H24.7184C25.2648 23.831 25.6788 23.6703 25.9602 23.3931L26.0534 23.2833C26.1161 23.1962 26.1748 23.0608 26.229 22.8786C26.2838 22.6961 26.311 22.4951 26.311 22.2764C26.295 21.6486 26.3462 21.0829 26.463 20.5792C26.5798 20.0757 26.7129 19.696 26.8618 19.4404C27.0105 19.1849 27.1784 18.9693 27.3653 18.7946C27.5526 18.6195 27.686 18.5134 27.7643 18.4769C27.8421 18.4401 27.9042 18.4152 27.9511 18.4002C28.3259 18.2835 28.7671 18.3965 29.2752 18.74C29.783 19.0831 30.2592 19.5068 30.7046 20.0103C31.1498 20.5143 31.6847 21.0797 32.3093 21.7075C32.9344 22.3354 33.481 22.8022 33.9494 23.1093L34.4178 23.3721C34.7306 23.5475 35.1367 23.7081 35.6367 23.8541C36.1357 24 36.5729 24.0365 36.9484 23.9635L42.9461 23.8761C43.5393 23.8761 44.0009 23.7843 44.3284 23.6021C44.6565 23.4196 44.8514 23.2185 44.9142 22.9998C44.9769 22.7809 44.9803 22.5325 44.9261 22.2548C44.8706 21.9778 44.8158 21.7841 44.7613 21.6746Z" fill="white"/>
</svg>
