<svg width="27" height="45" viewBox="0 0 27 45" fill="none" xmlns="http://www.w3.org/2000/svg">
<path d="M25.6747 0.009363L19.4385 0C12.4323 0 7.90463 4.34677 7.90463 11.0746V16.1807H1.63439C1.09257 16.1807 0.653809 16.5917 0.653809 17.0987V24.4969C0.653809 25.0039 1.09307 25.4145 1.63439 25.4145H7.90463V44.0824C7.90463 44.5894 8.34339 45 8.88522 45H17.0661C17.6079 45 18.0467 44.589 18.0467 44.0824V25.4145H25.378C25.9199 25.4145 26.3586 25.0039 26.3586 24.4969L26.3616 17.0987C26.3616 16.8553 26.2581 16.6221 26.0745 16.4499C25.8909 16.2776 25.6407 16.1807 25.3806 16.1807H18.0467V11.8522C18.0467 9.7717 18.5765 8.71555 21.4727 8.71555L25.6737 8.71415C26.215 8.71415 26.6538 8.30311 26.6538 7.79657V0.926937C26.6538 0.420867 26.2155 0.0102993 25.6747 0.009363Z" fill="white"/>
</svg>
