<svg width="45" height="45" viewBox="0 0 45 45" fill="none" xmlns="http://www.w3.org/2000/svg">
<g clip-path="url(#clip0_25_669)">
<path d="M30.9375 0H14.0625C6.29719 0 0 6.29719 0 14.0625V30.9375C0 38.7028 6.29719 45 14.0625 45H30.9375C38.7028 45 45 38.7028 45 30.9375V14.0625C45 6.29719 38.7028 0 30.9375 0ZM40.7812 30.9375C40.7812 36.3656 36.3656 40.7812 30.9375 40.7812H14.0625C8.63438 40.7812 4.21875 36.3656 4.21875 30.9375V14.0625C4.21875 8.63438 8.63438 4.21875 14.0625 4.21875H30.9375C36.3656 4.21875 40.7812 8.63438 40.7812 14.0625V30.9375Z" fill="white"/>
<path d="M22.5 11.25C16.2872 11.25 11.25 16.2872 11.25 22.5C11.25 28.7128 16.2872 33.75 22.5 33.75C28.7128 33.75 33.75 28.7128 33.75 22.5C33.75 16.2872 28.7128 11.25 22.5 11.25ZM22.5 29.5312C18.6244 29.5312 15.4688 26.3756 15.4688 22.5C15.4688 18.6216 18.6244 15.4688 22.5 15.4688C26.3756 15.4688 29.5312 18.6216 29.5312 22.5C29.5312 26.3756 26.3756 29.5312 22.5 29.5312Z" fill="white"/>
<path d="M34.5901 11.9058C35.418 11.9058 36.0892 11.2347 36.0892 10.4067C36.0892 9.57884 35.418 8.90768 34.5901 8.90768C33.7622 8.90768 33.0911 9.57884 33.0911 10.4067C33.0911 11.2347 33.7622 11.9058 34.5901 11.9058Z" fill="white"/>
</g>
<defs>
<clipPath id="clip0_25_669">
<rect width="45" height="45" fill="white"/>
</clipPath>
</defs>
</svg>
